# Blender v2.80 (sub 37) OBJ File: 'Ingredients.blend'
# www.blender.org
mtllib Olive.mtl
o Cube.002_Cube.001
v -1.570171 3.773793 -0.631895
v 1.281986 3.771070 0.060056
v -0.929091 3.537093 -1.664737
v -0.265971 3.715481 -1.771937
v 0.374756 3.772047 1.099771
v 0.900414 4.369712 -0.267847
v -0.661006 4.365546 0.636673
v 1.075282 2.089352 1.153387
v 0.544873 2.865360 1.367530
v 0.024672 2.455409 1.570168
v -1.759720 2.369412 0.637476
v -1.960391 2.830471 -0.160455
v 1.641252 1.925616 0.228168
v 0.211711 4.027391 0.508613
v -0.381359 4.030335 0.562597
v -0.881050 4.034076 -0.772813
v -0.412188 4.377826 -0.555449
v 0.372459 4.294444 -0.477945
v -0.565500 4.307935 0.066715
v 0.150016 4.260424 0.254390
v 0.689983 4.372552 0.367592
v 0.097358 4.368017 0.734622
v 0.007511 4.371594 -1.316597
v 0.701471 4.375685 -0.930666
v -1.754716 0.835291 -0.392063
v -1.434658 0.588171 0.461540
v 1.263622 0.561378 -0.688681
v 1.177491 1.045750 -1.342654
v -0.066218 1.222557 -1.993195
v 0.900426 -0.024676 -0.299410
v -1.080790 -0.024086 -0.749418
v -0.655298 -0.016926 -1.203677
v 0.205921 0.319046 -1.078313
v -0.379830 0.317015 -1.129800
v -0.866840 0.312583 0.206423
v -0.203206 0.261777 0.603520
v -0.515498 0.033555 0.088115
v 0.365405 0.049870 -0.081047
v -0.612735 0.043629 -0.597709
v 0.126099 0.026215 -0.726190
v 0.695842 0.398767 -1.366986
v 0.699118 -0.030392 -0.926353
v -0.019552 -0.028423 0.753955
v 0.705998 -0.023812 0.363262
v -1.461421 2.114410 -1.622100
v -0.749880 1.808596 -2.005503
v 1.654624 2.113902 -0.837298
v -1.977196 1.928286 -0.531397
v -1.812487 2.899318 -0.942831
v -1.398093 3.459171 -1.332452
v 0.250454 2.484557 -2.102322
v 0.904325 3.562148 -1.480883
v 1.638394 2.962679 -0.354343
v 1.517998 2.887072 0.399229
v 1.086779 3.477226 0.782590
v -0.410108 1.798613 1.527513
v -0.910110 2.601646 1.380520
v -1.288594 3.389072 0.952719
v -0.889020 4.377465 -1.067856
v -1.198663 4.373087 -0.063451
v -0.873068 2.597169 -1.982728
v 0.688632 4.035494 -0.036179
v -0.926022 4.026431 0.078043
v 0.626274 4.033160 -0.660237
v -0.025070 4.260016 -0.874563
v -0.047119 4.041971 -1.190057
v 0.342096 3.672332 -1.717115
v -0.545699 3.780926 1.118493
v -1.610392 3.626058 0.261849
v 1.325970 3.611901 -0.833209
v -1.860694 1.467247 0.253780
v -1.420779 1.522585 1.020178
v 0.263415 0.728209 1.218731
v 0.907970 0.769069 0.894937
v 1.302416 2.279735 -1.495107
v -0.555994 0.698719 -1.762847
v -1.191006 0.788920 -1.485729
v -1.177696 -0.026091 -0.014990
v 1.319495 1.254030 0.655844
v 1.568420 1.108716 -0.290548
v -1.735797 1.525275 -1.153623
v 0.679004 1.369015 -1.865906
v -0.637144 1.003600 1.324375
v -0.965773 0.317689 -0.579939
v 0.389261 0.318833 0.411770
v 0.717383 0.315704 -0.469305
v 0.081098 -0.039910 -1.327596
v -0.722373 -0.045415 0.627966
v -1.525502 0.554316 -0.776743
v 1.234839 0.552040 0.206132
v 0.487821 2.294037 1.386435
vt 0.581196 0.492420
vt 0.585638 0.423463
vt 0.615259 0.435980
vt 0.367049 0.626562
vt 0.420173 0.622401
vt 0.388925 0.647802
vt 0.543996 0.722753
vt 0.559119 0.656528
vt 0.582554 0.715555
vt 0.568493 0.575187
vt 0.597306 0.645372
vt 0.582897 0.376339
vt 0.611995 0.390193
vt 0.378328 0.716975
vt 0.373379 0.684873
vt 0.414823 0.711530
vt 0.360756 0.737552
vt 0.423424 0.737705
vt 0.656656 0.669059
vt 0.668218 0.716710
vt 0.667092 0.411859
vt 0.671334 0.450014
vt 0.891743 0.651353
vt 0.910517 0.720382
vt 0.841014 0.685593
vt 0.201193 0.688093
vt 0.225784 0.639440
vt 0.227852 0.679845
vt 0.899800 0.514358
vt 0.917321 0.589503
vt 0.870093 0.537085
vt 0.292964 0.688147
vt 0.247473 0.716079
vt 0.266283 0.657546
vt 0.310833 0.717868
vt 0.277630 0.743082
vt 0.831478 0.603928
vt 0.810615 0.561754
vt 0.880153 0.586824
vt 0.819770 0.356205
vt 0.813691 0.312386
vt 0.865187 0.342154
vt 0.703685 0.605625
vt 0.753675 0.628351
vt 0.706431 0.646351
vt 0.674356 0.576524
vt 0.651402 0.614315
vt 0.742357 0.570881
vt 0.772991 0.595000
vt 0.699369 0.347867
vt 0.746928 0.355660
vt 0.698713 0.384447
vt 0.663565 0.324456
vt 0.652672 0.367221
vt 0.738380 0.300279
vt 0.714176 0.756352
vt 0.767432 0.792599
vt 0.717156 0.824168
vt 0.628119 0.755286
vt 0.603628 0.822368
vt 0.731544 0.435649
vt 0.556726 0.777357
vt 0.454465 0.704307
vt 0.610299 0.492051
vt 0.602568 0.561912
vt 0.603601 0.346366
vt 0.780375 0.719536
vt 0.730869 0.690957
vt 0.780908 0.669020
vt 0.815492 0.630637
vt 0.755519 0.533006
vt 0.723159 0.488506
vt 0.782420 0.501169
vt 0.772793 0.466122
vt 0.862175 0.482595
vt 0.309904 0.656030
vt 0.886311 0.401557
vt 0.896156 0.334930
vt 0.956651 0.749875
vt 0.931359 0.780085
vt 0.937719 0.671763
vt 0.826306 0.451788
vt 0.788190 0.433765
vt 0.815776 0.404221
vt 0.858018 0.431793
vt 0.859301 0.387441
vt 0.664065 0.480277
vt 0.738380 0.403777
vt 0.689788 0.271417
vt 0.630439 0.287522
vt 0.676013 0.859175
vt 0.718432 0.539547
vt 0.670191 0.547128
vt 0.660917 0.511557
vt 0.433115 0.665598
vt 0.333047 0.677260
vt 0.452526 0.652006
vt 0.828326 0.271362
vt 0.728446 0.262773
vt 0.863713 0.832424
vt 0.785961 0.381073
vt 0.813017 0.524524
vt 0.782212 0.331717
vt 0.822920 0.769031
vt 0.264507 0.628958
vt 0.225799 0.735372
vt 0.567194 0.328478
vt 0.584020 0.304973
vt 0.886640 0.292281
vt 0.912235 0.295105
vt 0.891857 0.464072
vt 0.518266 0.771010
vt 0.728256 0.863961
vn -0.0369 0.8833 0.4674
vn -0.3025 0.9443 0.1294
vn 0.1263 0.9883 -0.0859
vn 0.3061 0.9304 -0.2017
vn 0.1014 0.9195 -0.3798
vn -0.3450 0.8990 0.2696
vn -0.0610 0.9918 0.1122
vn 0.3916 0.8950 0.2133
vn -0.1727 0.9823 0.0729
vn -0.3604 0.9271 -0.1028
vn 0.0934 0.9955 0.0098
vn 0.1401 0.8684 -0.4756
vn -0.2275 0.9526 -0.2017
vn 0.4031 0.9036 -0.1448
vn -0.8441 0.4362 0.3116
vn -0.6314 0.3469 0.6935
vn 0.8552 0.4134 -0.3127
vn 0.5980 0.3830 -0.7040
vn -0.1456 -0.9888 0.0317
vn -0.0945 -0.9815 0.1662
vn -0.7539 -0.4591 0.4699
vn 0.3453 -0.9265 0.1493
vn 0.1168 -0.9206 0.3726
vn -0.3703 -0.8961 -0.2446
vn -0.0304 -0.9922 -0.1211
vn 0.4192 -0.8888 0.1851
vn -0.2761 -0.9258 0.2581
vn 0.2134 -0.9185 -0.3329
vn -0.2331 -0.9167 -0.3243
vn 0.0663 -0.8930 -0.4450
vn -0.8105 -0.4955 -0.3121
vn -0.5995 -0.3950 -0.6961
vn -0.0844 -0.9961 -0.0256
vn 0.8318 -0.4798 0.2790
vn 0.5832 -0.4095 0.7015
vn 0.0912 -0.9834 0.1570
vn -0.9101 0.1914 -0.3676
vn -0.9899 -0.0658 -0.1252
vn -0.9802 0.1823 0.0773
vn -0.7178 0.3625 -0.5943
vn -0.8504 0.4877 -0.1975
vn -0.7020 -0.0140 -0.7121
vn -0.8656 -0.1830 -0.4661
vn 0.9030 0.1869 0.3869
vn 0.9597 -0.0630 0.2738
vn 0.9747 0.2183 -0.0478
vn 0.6921 0.3760 0.6161
vn 0.8561 0.4790 0.1940
vn 0.6266 -0.0366 0.7785
vn -0.4161 0.1180 0.9016
vn -0.1373 -0.1210 0.9831
vn 0.0920 0.0737 0.9930
vn -0.2011 0.4535 0.8683
vn 0.2806 0.4620 0.8413
vn 0.7426 0.0542 -0.6675
vn 0.0108 0.9963 0.0847
vn 0.0075 0.9966 -0.0815
vn -0.1390 0.9823 -0.1258
vn 0.1020 0.9915 0.0806
vn -0.6667 -0.1810 0.7230
vn -0.8566 0.0646 0.5119
vn -0.9390 -0.1924 0.2850
vn -0.9230 -0.3827 -0.0399
vn -0.3011 -0.1217 -0.9458
vn 0.2094 0.0961 -0.9731
vn 0.0507 -0.2751 -0.9601
vn 0.4250 -0.2274 -0.8762
vn 0.0090 -0.9893 -0.1453
vn -0.3916 -0.9180 0.0628
vn 0.0119 -0.9942 0.1069
vn 0.2839 -0.9280 -0.2412
vn 0.5017 -0.5087 -0.6996
vn 0.7583 -0.3183 -0.5689
vn 0.8449 -0.4751 -0.2458
vn 0.1191 -0.9915 -0.0522
vn 0.0975 -0.9942 -0.0459
vn 0.2845 0.4301 -0.8567
vn 0.9613 -0.0227 -0.2743
vn 0.3784 0.2076 0.9020
vn -0.3571 0.1346 -0.9243
vn -0.4219 0.3962 -0.8155
vn -0.0837 0.4435 -0.8924
vn 0.2400 0.8844 0.4002
vn -0.1543 0.9440 -0.2915
vn 0.2302 -0.4029 0.8858
vn 0.3446 -0.0762 0.9356
vn 0.9554 -0.2947 -0.0162
vn -0.2116 -0.4288 -0.8782
vn 0.8247 -0.2475 0.5085
vn -0.2823 -0.3471 0.8943
vn -0.1651 -0.9388 0.3023
usemtl Material.002
s 1
f 66/1/1 64/2/2 24/3/3
f 63/4/4 15/5/5 19/6/6
f 15/7/5 63/8/4 7/9/7
f 63/8/4 16/10/8 60/11/9
f 64/2/2 62/12/10 6/13/11
f 65/14/12 17/15/13 18/16/14
f 66/17/1 65/14/12 18/16/14
f 64/18/2 66/17/1 18/16/14
f 69/19/15 58/20/16 60/11/9
f 70/21/17 52/22/18 24/3/3
f 78/23/19 88/24/20 26/25/21
f 84/26/22 34/27/23 39/28/24
f 34/29/23 84/30/22 32/31/25
f 38/32/26 37/33/27 40/34/28
f 40/34/28 37/33/27 39/28/24
f 85/35/29 36/36/30 38/32/26
f 89/37/31 77/38/32 31/39/33
f 90/40/34 74/41/35 44/42/36
f 49/43/37 48/44/38 12/45/39
f 50/46/40 49/43/37 1/47/41
f 45/48/42 81/49/43 49/43/37
f 54/50/44 13/51/45 53/52/46
f 55/53/47 54/50/44 2/54/48
f 8/55/49 13/51/45 54/50/44
f 57/56/50 56/57/51 10/58/52
f 58/20/16 57/56/50 68/59/53
f 68/59/53 10/58/52 5/60/54
f 75/61/55 52/22/18 70/21/17
f 60/11/9 58/20/16 7/9/7
f 22/62/56 15/7/5 7/9/7
f 64/18/2 18/16/14 62/63/10
f 66/1/1 23/64/57 59/65/58
f 65/14/12 66/17/1 17/15/13
f 2/54/48 21/66/59 55/53/47
f 69/19/15 60/11/9 1/47/41
f 70/21/17 6/13/11 2/54/48
f 1/47/41 59/65/58 50/46/40
f 72/67/60 11/68/61 71/69/62
f 48/44/38 71/69/62 12/45/39
f 26/25/21 71/69/62 25/70/63
f 46/71/64 51/72/65 29/73/66
f 31/39/33 77/38/32 32/31/25
f 51/72/65 82/74/67 29/73/66
f 87/75/68 34/29/23 32/31/25
f 85/35/29 38/32/26 86/76/69
f 86/77/69 44/42/36 85/78/29
f 36/79/30 43/80/70 88/24/20
f 78/23/19 84/30/22 35/81/71
f 38/32/26 36/36/30 37/33/27
f 41/82/72 28/83/73 27/84/74
f 27/84/74 42/85/75 41/82/72
f 89/37/31 78/23/19 25/70/63
f 90/40/34 30/86/76 27/84/74
f 50/46/40 45/48/42 49/43/37
f 1/47/41 49/43/37 12/45/39
f 48/44/38 49/43/37 81/49/43
f 52/22/18 75/61/55 51/72/65
f 55/53/47 8/55/49 54/50/44
f 2/54/48 54/50/44 53/52/46
f 68/59/53 57/56/50 10/58/52
f 58/20/16 72/67/60 57/56/50
f 67/87/77 23/64/57 24/3/3 52/22/18
f 47/88/78 53/52/46 13/51/45
f 9/89/79 55/53/47 5/90/54
f 10/58/52 9/91/79 5/60/54
f 61/92/80 3/93/81 4/94/82
f 50/46/40 61/92/80 45/48/42
f 51/72/65 61/92/80 4/94/82
f 61/92/80 51/72/65 46/71/64
f 20/95/83 19/6/6 15/5/5
f 21/66/59 6/13/11 62/12/10
f 63/8/4 60/11/9 7/9/7
f 63/4/4 19/6/6 16/96/8
f 19/6/6 17/15/13 16/96/8
f 64/2/2 6/13/11 24/3/3
f 59/65/58 60/11/9 16/10/8
f 17/15/13 20/95/83 18/16/14
f 20/95/83 14/97/84 62/63/10
f 17/15/13 66/17/1 16/96/8
f 5/60/54 22/62/56 68/59/53
f 23/64/57 67/87/77 4/94/82
f 71/69/62 26/25/21 72/67/60
f 25/70/63 71/69/62 48/44/38
f 12/45/39 71/69/62 11/68/61
f 73/98/85 8/55/49 91/99/86
f 56/57/51 73/100/85 10/58/52
f 8/55/49 9/89/79 91/99/86
f 28/83/73 75/61/55 47/88/78
f 27/84/74 28/83/73 80/101/87
f 76/102/88 46/71/64 29/73/66
f 45/48/42 61/92/80 46/71/64
f 77/38/32 45/48/42 46/71/64
f 13/51/45 8/55/49 79/103/89
f 80/101/87 13/51/45 79/103/89
f 13/51/45 80/101/87 47/88/78
f 80/101/87 79/103/89 90/40/34
f 48/44/38 81/49/43 25/70/63
f 25/70/63 81/49/43 89/37/31
f 28/83/73 82/74/67 75/61/55
f 51/72/65 75/61/55 82/74/67
f 56/57/51 57/56/50 83/104/90
f 40/34/28 39/28/24 34/27/23
f 42/85/75 30/86/76 86/77/69
f 84/30/22 78/23/19 31/39/33
f 84/30/22 31/39/33 32/31/25
f 86/77/69 30/86/76 44/42/36
f 35/81/71 36/79/30 88/24/20
f 40/34/28 33/105/91 86/76/69
f 37/33/27 36/36/30 35/106/71
f 87/75/68 76/102/88 29/73/66
f 83/104/90 43/80/70 73/100/85
f 67/87/77 51/72/65 4/94/82
f 75/61/55 70/21/17 47/88/78
f 58/20/16 69/19/15 11/68/61
f 50/46/40 3/93/81 61/92/80
f 14/107/84 22/108/56 21/66/59
f 17/15/13 19/6/6 20/95/83
f 2/54/48 53/52/46 70/21/17
f 68/59/53 22/62/56 7/9/7
f 1/47/41 12/45/39 69/19/15
f 8/55/49 73/98/85 74/41/35
f 47/88/78 80/101/87 28/83/73
f 46/71/64 76/102/88 77/38/32
f 43/109/70 36/110/30 85/78/29
f 8/55/49 74/41/35 79/103/89
f 45/48/42 77/38/32 81/49/43
f 72/67/60 83/104/90 57/56/50
f 33/111/91 87/75/68 42/85/75
f 41/82/72 82/74/67 28/83/73
f 27/84/74 80/101/87 90/40/34
f 88/24/20 83/104/90 72/67/60
f 76/102/88 87/75/68 32/31/25
f 23/64/57 66/1/1 24/3/3
f 52/22/18 51/72/65 67/87/77
f 53/52/46 47/88/78 70/21/17
f 58/20/16 11/68/61 72/67/60
f 9/89/79 8/55/49 55/53/47
f 20/95/83 15/5/5 14/97/84
f 21/66/59 5/90/54 55/53/47
f 21/66/59 22/108/56 5/90/54
f 59/65/58 3/93/81 50/46/40
f 59/65/58 4/94/82 3/93/81
f 59/65/58 23/64/57 4/94/82
f 24/3/3 6/13/11 70/21/17
f 73/100/85 56/57/51 83/104/90
f 40/34/28 34/27/23 33/105/91
f 82/74/67 41/82/72 87/75/68
f 87/75/68 29/73/66 82/74/67
f 42/85/75 87/75/68 41/82/72
f 72/67/60 26/25/21 88/24/20
f 88/24/20 43/80/70 83/104/90
f 31/39/33 78/23/19 89/37/31
f 44/42/36 30/86/76 90/40/34
f 59/65/58 16/10/8 66/1/1
f 14/112/84 15/7/5 22/62/56
f 2/54/48 6/13/11 21/66/59
f 1/47/41 60/11/9 59/65/58
f 85/78/29 44/42/36 43/109/70
f 88/24/20 78/23/19 35/81/71
f 33/111/91 34/29/23 87/75/68
f 11/68/61 69/19/15 12/45/39
f 62/12/10 14/107/84 21/66/59
f 18/16/14 20/95/83 62/63/10
f 39/28/24 37/33/27 35/106/71 84/26/22
f 7/9/7 58/20/16 68/59/53
f 86/77/69 33/111/91 42/85/75
f 73/98/85 43/109/70 44/42/36 74/41/35
f 38/32/26 40/34/28 86/76/69
f 27/84/74 30/86/76 42/85/75
f 32/31/25 77/38/32 76/102/88
f 89/37/31 81/49/43 77/38/32
f 90/40/34 79/103/89 74/41/35
f 26/25/21 25/70/63 78/23/19
f 91/113/86 9/91/79 10/58/52
f 91/113/86 10/58/52 73/100/85
