# Blender v2.80 (sub 37) OBJ File: ''
# www.blender.org
mtllib Pizza.mtl
o Pizza1_Cylinder.001
v -0.418816 0.000000 0.001248
v -0.194733 0.000000 0.000624
v -0.418816 0.119687 0.001248
v -0.194733 0.119687 0.000624
v -0.301659 0.000000 0.319566
v -0.136154 0.000000 0.159783
v -0.301659 0.119687 0.319566
v -0.136154 0.119687 0.159783
v -0.411772 0.119687 0.183269
v -0.377419 0.000000 0.168959
v -0.177351 0.000000 0.085861
v -0.178041 0.119687 0.086148
v 0.029350 0.000000 0.000000
v 0.029350 0.119687 0.000000
vt 0.202000 0.250000
vt 0.154000 0.250000
vt 0.154000 0.250000
vt 0.202000 0.250000
vt 0.182118 0.182118
vt 0.216059 0.216059
vt 0.216059 0.216059
vt 0.182118 0.182118
vt 0.156324 0.211198
vt 0.205966 0.231761
vt 0.163639 0.214228
vt 0.206113 0.231822
vt 0.250000 0.250000
vt 0.250000 0.250000
vn -0.0028 0.0000 -1.0000
vn 0.6946 0.0000 0.7194
vn 0.0000 1.0000 -0.0000
vn 0.0000 -1.0000 0.0000
vn -0.9795 -0.1487 0.1357
vn -0.8296 -0.1512 0.5375
usemtl None
s off
f 2/1/1 1/2/1 3/3/1 4/4/1
f 5/5/2 6/6/2 8/7/2 7/8/2
f 3/3/3 9/9/3 12/10/3 4/4/3
f 9/9/3 7/8/3 8/7/3 12/10/3
f 5/5/4 10/11/4 11/12/4 6/6/4
f 2/1/4 11/12/4 10/11/4 1/2/4
f 3/3/5 1/2/5 10/11/5 9/9/5
f 10/11/6 5/5/6 7/8/6 9/9/6
f 6/6/2 13/13/2 14/14/2 8/7/2
f 13/13/4 11/12/4 2/1/4
f 13/13/1 2/1/1 4/4/1 14/14/1
f 6/6/4 11/12/4 13/13/4
f 12/10/3 8/7/3 14/14/3
f 4/4/3 12/10/3 14/14/3
o pIZZA4_Cylinder.003
v -1.013903 0.000000 0.433800
v -0.797130 0.000000 0.798914
v -1.090023 0.000000 0.003120
v -1.013903 0.119687 0.433800
v -0.797130 0.119687 0.798914
v -1.090023 0.119687 0.003120
v -0.815893 0.000000 0.351319
v -0.866518 0.000000 0.002496
v -0.866518 0.119687 0.002496
v -0.632203 0.000000 0.639131
v -0.632203 0.119687 0.639131
v -0.848733 0.119687 0.364998
vt 0.080294 0.080294
vt 0.028269 0.158156
vt 0.070428 0.175619
vt 0.114236 0.114235
vt 0.080294 0.080294
vt 0.114236 0.114235
vt 0.063436 0.172723
vt 0.028269 0.158156
vt 0.058000 0.250000
vt 0.010000 0.250000
vt 0.010000 0.250000
vt 0.058000 0.250000
vn 0.0000 -1.0000 0.0000
vn 0.0000 1.0000 0.0000
vn -0.0028 0.0000 -1.0000
vn -0.8599 0.0000 0.5105
vn -0.9847 0.0000 0.1740
vn 0.6958 0.0000 0.7182
vn 0.9855 0.1406 -0.0948
vn 0.8061 0.1434 -0.5741
usemtl None
s off
f 16/15/7 15/16/7 21/17/7 24/18/7
f 19/19/8 25/20/8 26/21/8 18/22/8
f 22/23/9 17/24/9 20/25/9 23/26/9
f 18/22/8 26/21/8 23/26/8 20/25/8
f 15/16/10 16/15/10 19/19/10 18/22/10
f 17/24/11 15/16/11 18/22/11 20/25/11
f 16/15/12 24/18/12 25/20/12 19/19/12
f 22/23/7 21/17/7 15/16/7 17/24/7
f 22/23/13 23/26/13 26/21/13 21/17/13
f 24/18/14 21/17/14 26/21/14 25/20/14
o Pizza3_Cylinder.004
v -0.864715 0.000000 0.002496
v -0.864715 0.119687 0.002496
v -0.630401 0.000000 0.639131
v -0.630401 0.119687 0.639131
v -0.846930 0.119687 0.364998
v -0.613240 0.000000 0.267654
v -0.641210 0.000000 0.001872
v -0.641210 0.119687 0.001872
v -0.465474 0.000000 0.479348
v -0.465474 0.119687 0.479348
v -0.630480 0.119687 0.274836
v -0.814090 0.000000 0.351319
vt 0.106000 0.250000
vt 0.058000 0.250000
vt 0.058000 0.250000
vt 0.106000 0.250000
vt 0.114236 0.114235
vt 0.148177 0.148177
vt 0.148177 0.148177
vt 0.114236 0.114235
vt 0.063436 0.172723
vt 0.109522 0.191812
vt 0.113192 0.193332
vt 0.070428 0.175619
vn -0.0028 0.0000 -1.0000
vn 0.6958 0.0000 0.7182
vn 0.0000 1.0000 -0.0000
vn 0.0000 -1.0000 0.0000
vn 0.7972 0.0754 -0.5990
vn 0.9947 0.0738 -0.0715
vn -0.9855 -0.1406 0.0948
vn -0.8061 -0.1434 0.5741
usemtl None
s off
f 33/27/15 27/28/15 28/29/15 34/30/15
f 29/31/16 35/32/16 36/33/16 30/34/16
f 28/29/17 31/35/17 37/36/17 34/30/17
f 31/35/17 30/34/17 36/33/17 37/36/17
f 33/27/18 32/37/18 38/38/18 27/28/18
f 29/31/18 38/38/18 32/37/18 35/32/18
f 35/32/19 32/37/19 37/36/19 36/33/19
f 37/36/20 32/37/20 33/27/20 34/30/20
f 27/28/21 38/38/21 31/35/21 28/29/21
f 30/34/22 31/35/22 38/38/22 29/31/22
o Pizza2_Cylinder.005
v -0.640391 0.000000 0.001872
v -0.640391 0.119687 0.001872
v -0.464655 0.000000 0.479348
v -0.464655 0.119687 0.479348
v -0.629661 0.119687 0.274836
v -0.416886 0.000000 0.001248
v -0.416886 0.119687 0.001248
v -0.299728 0.000000 0.319566
v -0.299728 0.119687 0.319566
v -0.409842 0.119687 0.183269
v -0.375488 0.000000 0.168959
v -0.612421 0.000000 0.267654
vt 0.154000 0.250000
vt 0.106000 0.250000
vt 0.106000 0.250000
vt 0.154000 0.250000
vt 0.148177 0.148177
vt 0.182118 0.182118
vt 0.182118 0.182118
vt 0.148177 0.148177
vt 0.109522 0.191812
vt 0.156324 0.211198
vt 0.163639 0.214228
vt 0.113192 0.193332
vn -0.0028 0.0000 -1.0000
vn 0.6958 0.0000 0.7182
vn 0.0000 1.0000 0.0000
vn 0.0000 -1.0000 0.0000
vn 0.8296 0.1512 -0.5375
vn 0.9795 0.1487 -0.1357
vn -0.9947 -0.0738 0.0715
vn -0.7972 -0.0754 0.5990
usemtl None
s off
f 44/39/23 39/40/23 40/41/23 45/42/23
f 41/43/24 46/44/24 47/45/24 42/46/24
f 40/41/25 43/47/25 48/48/25 45/42/25
f 43/47/25 42/46/25 47/45/25 48/48/25
f 44/39/26 49/49/26 50/50/26 39/40/26
f 41/43/26 50/50/26 49/49/26 46/44/26
f 46/44/27 49/49/27 48/48/27 47/45/27
f 48/48/28 49/49/28 44/39/28 45/42/28
f 40/41/29 39/40/29 50/50/29 43/47/29
f 50/50/30 41/43/30 42/46/30 43/47/30
